<svg width="80" height="97" viewBox="0 0 80 97" fill="none" xmlns="http://www.w3.org/2000/svg">
<path d="M74.0524 18.3931C67.333 11.7185 59.3928 9.37957 50.2361 11.3764C46.5488 12.1814 43.1321 13.6169 39.9905 15.6786L39.8071 15.7546C39.6618 15.5735 39.5097 15.4348 39.351 15.3365C35.1762 12.7717 30.6415 11.2892 25.7468 10.8844C20.1275 10.4216 15.0002 11.7431 10.3627 14.8512C9.42127 15.484 7.78672 16.8883 5.45898 19.0684C8.35916 14.2117 12.2052 10.2114 16.9971 7.0675C28.363 -0.389762 41.786 -2.1205 54.5674 2.71163C62.2057 5.60062 68.4376 10.3277 73.2586 16.8883C73.5448 17.2773 73.8087 17.7805 74.0524 18.3954V18.3931Z" fill="#3AA5FF"/>
<path d="M74.0519 18.3932C77.6743 23.9096 79.6577 30.1505 79.9998 37.1225C79.9998 37.1672 79.9663 37.2052 79.9238 37.2075C79.9238 37.2075 79.9215 37.2075 79.9193 37.2075H55.0409C54.9693 37.2075 54.9067 37.1583 54.8911 37.089C53.0888 29.1666 49.0281 22.6619 42.7135 17.5749C41.8615 16.8884 40.9537 16.2578 39.9922 15.6787C43.1339 13.617 46.5506 12.1837 50.2378 11.3765C59.3945 9.37968 67.3348 11.7186 74.0541 18.3932H74.0519Z" fill="#237EFF"/>
<path d="M39.8068 15.7546C39.1383 16.2421 38.4764 16.7363 37.8235 17.2394C31.406 22.1923 27.2603 28.4554 25.3798 36.0335C22.1509 49.0853 28.7965 62.4682 39.9097 69.5968C32.7968 73.9861 24.2237 74.6145 16.7553 70.7327C14.6243 69.6281 12.5358 68.1522 10.4876 66.3053C8.0749 62.8751 5.90368 59.2415 3.96949 55.4089C-1.89346 43.7792 -1.14885 30.2734 5.45648 19.0685C7.78645 16.8883 9.421 15.4841 10.3601 14.8512C14.9977 11.7431 20.1273 10.4216 25.7443 10.8845C30.6368 11.2892 35.1715 12.7717 39.3484 15.3365C39.5072 15.4349 39.6593 15.5735 39.8046 15.7546H39.8068Z" fill="#5CD9FF"/>
<path d="M68.6811 67.7254L68.737 67.4906C68.7639 67.3743 68.6901 67.258 68.576 67.2312C68.509 67.2156 68.4396 67.2312 68.3882 67.2782C61.0852 73.6957 51.5663 75.1133 42.6511 70.9923C41.6449 70.5272 40.8668 70.0106 40.3145 69.4427C42.5393 68.0474 44.5496 66.4061 46.3496 64.5233C50.8888 59.7717 53.789 54.1749 55.0523 47.7305C55.0747 47.6165 55.1462 47.5583 55.2648 47.5583H78.8306C78.9066 47.5583 78.967 47.6187 78.967 47.6947C78.967 47.7082 78.967 47.7216 78.9625 47.735C77.0306 54.9821 72.867 61.5695 68.6811 67.7276V67.7254Z" fill="#237EFF"/>
<path d="M10.4876 66.3052C12.5358 68.1522 14.6243 69.628 16.7553 70.7326C24.2237 74.6166 32.799 73.9883 39.9097 69.5967L40.3144 69.4424C40.8645 70.0103 41.6449 70.5269 42.6511 70.992C51.5663 75.113 61.0852 73.6954 68.3881 67.2779C68.4776 67.1996 68.6118 67.2086 68.69 67.3002C68.7348 67.3517 68.7526 67.4232 68.737 67.4925L68.6811 67.7273C64.3163 73.9145 59.511 79.7394 54.2652 85.2066C51.3695 88.2186 48.154 91.1255 44.6144 93.925C43.6417 94.692 42.6645 95.3181 41.6829 95.8033C39.2299 97.0197 36.853 95.0878 34.7287 93.3794C30.6144 90.0723 26.6767 86.3448 22.9178 82.1924C18.5396 77.3536 14.4812 72.2576 10.7425 66.9022C10.6352 66.7479 10.548 66.5489 10.4854 66.3074L10.4876 66.3052Z" fill="#2264FF"/>
</svg>
